<?xml version="1.0" standalone="no"?>
<!DOCTYPE svg PUBLIC "-//W3C//DTD SVG 20010904//EN"
 "http://www.w3.org/TR/2001/REC-SVG-20010904/DTD/svg10.dtd">
<svg version="1.0" xmlns="http://www.w3.org/2000/svg"
 width="1280.000000pt" height="194.000000pt" viewBox="0 0 1280.000000 194.000000"
 preserveAspectRatio="xMidYMid meet">
<metadata>
Created by potrace 1.16, written by Peter Selinger 2001-2019
</metadata>
<g transform="translate(0.000000,194.000000) scale(0.100000,-0.100000)"
fill="#000000" stroke="none">
<path d="M7900 1925 c48 -58 331 -211 497 -268 235 -82 398 -102 793 -96 582
8 805 4 924 -15 226 -37 326 -84 457 -215 137 -137 161 -180 461 -801 99 -205
172 -332 260 -455 l53 -75 728 0 727 0 0 970 0 970 -2456 0 c-2211 0 -2455 -2
-2444 -15z"/>
<path d="M2080 1600 c-809 -27 -1636 -102 -2053 -186 l-27 -6 0 -704 0 -704
3315 0 3315 0 -22 58 c-369 996 -1198 1419 -3003 1532 -222 14 -1212 21 -1525
10z"/>
</g>
</svg>
