<?xml version="1.0" standalone="no"?>
<!DOCTYPE svg PUBLIC "-//W3C//DTD SVG 20010904//EN"
 "http://www.w3.org/TR/2001/REC-SVG-20010904/DTD/svg10.dtd">
<svg version="1.0" xmlns="http://www.w3.org/2000/svg"
 width="350.000000pt" height="758.000000pt" viewBox="0 0 350.000000 758.000000"
 preserveAspectRatio="xMidYMid meet">
<metadata>
Created by potrace 1.16, written by Peter Selinger 2001-2019
</metadata>
<g transform="translate(0.000000,758.000000) scale(0.100000,-0.100000)"
fill="#000000" stroke="none">
<path d="M120 7568 c0 -7 9 -197 20 -423 11 -225 25 -509 30 -630 21 -426 50
-986 55 -1042 l5 -58 -16 43 c-11 30 -21 42 -33 40 -21 -4 -24 -38 -16 -175 7
-108 8 -113 29 -113 16 0 28 12 44 45 12 25 22 50 22 56 0 6 9 23 21 37 11 15
34 45 50 67 l31 40 -6 145 c-22 500 -28 642 -46 1065 -11 259 -22 533 -25 610
-3 77 -8 177 -11 223 l-7 82 -73 0 c-53 0 -74 -4 -74 -12z"/>
<path d="M498 7475 c-2 -58 0 -105 3 -105 4 0 7 -87 8 -192 1 -106 4 -231 6
-278 1 -47 6 -164 9 -260 11 -306 27 -744 29 -774 2 -37 27 -48 27 -12 0 13 5
28 10 31 6 3 10 -4 10 -18 0 -20 6 -25 34 -30 19 -3 44 -3 55 0 20 5 21 9 17
247 -3 132 -8 432 -12 666 -3 234 -8 436 -9 450 -2 14 -4 105 -6 203 l-2 177
-88 0 -88 0 -3 -105z"/>
<path d="M3056 7572 c-10 -17 -10 -196 0 -199 6 -2 11 4 11 14 -1 58 7 143 10
118 2 -16 -10 -297 -27 -622 -16 -326 -30 -613 -30 -639 0 -36 -3 -45 -14 -41
-20 8 -23 -8 -17 -83 l5 -65 7 60 c5 58 6 57 7 -27 2 -74 0 -86 -13 -82 -18 7
-20 -12 -2 -20 10 -5 10 -7 0 -12 -7 -3 -13 -15 -12 -27 0 -21 1 -21 9 -2 6
14 9 -2 9 -52 1 -59 -2 -74 -16 -82 -14 -8 -15 -10 -3 -11 13 0 13 -1 0 -10
-10 -6 -11 -10 -2 -10 8 0 12 -20 12 -66 0 -47 -3 -63 -12 -58 -8 5 -9 2 -5
-9 4 -10 1 -17 -6 -17 -8 0 -6 -4 3 -10 13 -9 13 -10 0 -10 -13 0 -13 -1 0
-10 13 -9 13 -10 0 -10 -13 0 -13 -1 0 -10 13 -9 13 -10 0 -10 -13 0 -13 -1 0
-10 10 -6 11 -10 3 -10 -7 0 -13 -9 -13 -20 0 -11 5 -20 10 -20 6 0 10 -11 10
-25 0 -14 -6 -25 -12 -25 -9 0 -8 -4 2 -10 8 -5 10 -10 4 -10 -15 0 -24 -80
-9 -80 5 0 3 -5 -5 -10 -13 -9 -13 -10 0 -10 13 0 13 -1 0 -10 -13 -9 -13 -10
0 -10 10 0 11 -3 3 -8 -12 -7 -18 -106 -29 -432 -10 -331 -7 -303 -38 -311
-35 -10 -58 -1 -52 20 3 9 7 52 10 96 4 44 8 105 11 135 15 186 31 434 40 635
3 72 8 159 10 195 2 36 7 160 10 275 4 116 8 230 10 255 2 25 6 142 10 260 3
118 8 240 10 270 2 30 7 127 11 215 3 88 9 190 13 227 7 62 5 68 -12 74 -16 5
-17 8 -6 15 8 5 24 9 37 9 18 0 22 5 21 33 -2 30 -2 30 -6 5 -6 -41 -26 -34
-21 7 4 36 -6 45 -73 60 l-26 6 -6 -138 c-4 -76 -16 -340 -27 -588 -30 -657
-59 -1261 -85 -1759 -8 -154 -15 -288 -15 -298 0 -10 -3 -18 -7 -18 -8 0 -5
96 21 595 25 482 35 674 56 1135 28 615 39 860 45 973 5 83 4 98 -10 103 -9 4
-18 5 -20 3 -2 -2 -6 -54 -9 -114 -3 -61 -8 -150 -11 -200 -3 -49 -10 -196
-15 -325 -37 -894 -64 -1488 -90 -1964 -6 -99 -10 -192 -10 -208 0 -15 -5 -28
-11 -28 -8 0 -9 27 -5 93 8 112 48 937 76 1547 21 472 36 801 46 1018 6 119 5
132 -10 126 -12 -5 -16 0 -16 17 0 12 -2 20 -5 18 -4 -5 -15 -259 -65 -1454
-6 -137 -15 -338 -20 -445 -5 -107 -16 -366 -26 -575 l-17 -380 -40 -34 c-49
-43 -101 -123 -118 -181 -15 -54 -31 -77 -24 -35 2 17 9 161 15 320 6 160 15
396 20 525 9 217 25 660 50 1350 5 151 14 426 20 610 6 184 12 345 14 357 3
21 -11 33 -39 33 -18 0 -22 -64 -40 -720 -20 -728 -33 -1153 -50 -1549 -12
-295 -12 -327 3 -349 14 -21 14 -38 4 -138 -6 -62 -16 -122 -21 -133 -6 -11
-11 -48 -11 -83 0 -35 -3 -100 -7 -145 -5 -74 -8 -83 -26 -83 -19 0 -19 5 -12
168 4 92 4 164 -1 160 -8 -9 -10 -41 -12 -207 l-2 -113 -34 6 c-39 8 -46 -2
-46 -68 0 -72 -19 -149 -41 -171 l-21 -20 11 21 c5 12 8 24 4 27 -5 5 0 28 24
122 12 45 15 87 6 82 -5 -3 6 25 24 61 18 37 36 82 39 99 6 28 3 34 -19 42
-14 5 -27 16 -29 23 -3 8 -9 4 -18 -11 -12 -24 -13 -24 -24 -4 -19 35 -96 113
-112 113 -8 0 -13 4 -10 9 4 5 -3 7 -14 4 -28 -7 -25 -16 20 -64 22 -23 40
-46 40 -51 0 -5 -13 -11 -30 -14 -16 -4 -28 -10 -25 -14 7 -12 -46 -19 -69
-10 -21 9 -21 9 -1 10 17 1 17 3 -6 15 -15 8 -29 21 -33 30 -3 8 -12 15 -20
15 -27 0 -36 76 -18 144 7 25 7 46 1 57 -5 10 -9 33 -9 51 0 32 1 33 45 33 40
0 43 -1 30 -16 -23 -25 -18 -48 19 -85 25 -25 43 -34 67 -34 26 0 30 3 19 10
-13 8 -13 10 -1 10 11 0 9 4 -5 15 -17 13 -17 14 -2 15 20 0 46 40 26 40 -9 0
-9 3 0 12 8 8 15 8 29 -3 16 -13 17 -12 5 3 -8 10 -22 20 -33 23 -26 9 -24 35
3 35 12 0 18 3 15 7 -4 3 -2 12 4 20 9 10 4 13 -28 13 -22 0 -43 -3 -47 -7
-11 -11 -96 -11 -103 0 -3 6 -1 7 5 3 7 -4 12 -2 12 5 0 7 21 32 47 57 58 53
112 64 190 38 58 -19 113 -79 113 -122 0 -27 0 -27 19 -8 10 10 14 22 9 25 -4
3 -13 34 -19 70 -21 118 -64 148 -249 170 -268 32 -640 -39 -640 -122 0 -19
60 -76 94 -89 47 -17 94 -120 55 -120 -10 0 -6 -23 14 -97 14 -54 27 -55 27
-2 0 35 -2 40 -14 30 -12 -10 -13 -8 -9 8 3 12 9 18 14 16 4 -3 7 15 5 40 -1
25 1 48 6 51 4 3 8 21 8 40 0 40 17 46 26 9 6 -25 0 -130 -12 -214 -4 -31 -3
-42 5 -37 7 5 11 -4 11 -24 0 -17 9 -48 20 -70 25 -49 25 -62 0 -30 -17 22
-15 13 9 -65 15 -49 35 -104 44 -122 19 -36 23 -130 6 -153 -8 -12 -9 -8 -6
15 4 26 3 27 -8 12 -7 -9 -16 -17 -22 -17 -5 0 -22 -13 -38 -30 -16 -16 -34
-30 -41 -30 -15 0 -26 -28 -17 -43 4 -7 -1 -6 -10 2 -40 32 -16 78 78 147 36
26 63 49 61 51 -7 8 -100 -39 -134 -67 -20 -17 -43 -30 -52 -31 -8 0 -35 -14
-60 -29 -76 -49 -221 -121 -233 -116 -9 3 -8 5 1 5 6 1 12 13 12 27 0 14 -4
23 -10 19 -6 -4 -10 8 -10 29 0 42 -15 48 -25 9 -4 -19 -9 -23 -15 -14 -5 9
-17 11 -34 7 -25 -6 -33 -28 -27 -75 2 -7 -2 -10 -8 -7 -13 8 -8 144 9 250 11
64 11 97 0 175 -20 149 -38 240 -40 206 -2 -30 -2 -30 -10 -5 -4 14 -8 39 -8
55 -1 26 1 27 8 10 12 -25 5 47 -21 220 -27 179 -35 208 -71 273 -24 43 -27
53 -13 42 19 -15 19 -15 1 15 -10 17 -30 40 -45 53 -14 13 -20 20 -13 17 11
-6 12 -3 4 12 -13 24 -42 49 -42 37 0 -5 -6 -2 -13 6 -9 12 -58 51 -96 77 -2
1 2 10 10 20 9 11 10 14 2 9 -9 -5 -11 -2 -7 8 3 9 11 16 18 16 18 1 -16 17
-52 25 l-32 7 22 -39 c12 -21 27 -45 34 -53 6 -8 11 -33 9 -55 -3 -53 11 -82
61 -130 26 -24 46 -56 53 -80 35 -124 43 -326 17 -388 -19 -42 -145 -168 -179
-179 -39 -11 -91 -8 -121 7 -15 8 -38 15 -50 15 -15 0 -17 3 -7 9 9 6 10 11 2
15 -6 4 -11 13 -11 19 0 9 3 8 8 -1 5 -8 25 -11 53 -9 48 3 72 13 64 28 -3 5
1 6 10 3 11 -4 14 -2 10 9 -4 9 2 16 15 20 12 3 19 10 16 15 -7 12 22 38 31
28 4 -3 19 5 34 20 27 26 69 27 69 1 0 -6 7 -2 15 11 12 16 13 27 6 40 -12 23
-88 92 -100 92 -5 0 -16 3 -25 6 -29 11 -17 -15 26 -55 24 -22 40 -43 36 -46
-13 -13 -101 -26 -111 -16 -5 5 -43 7 -85 4 -56 -4 -74 -2 -67 6 6 6 34 12 63
13 l51 2 -18 31 c-13 22 -24 29 -41 27 -13 -1 -28 -8 -32 -15 -5 -9 -10 -9
-19 0 -7 7 -8 17 -3 25 5 7 10 22 11 33 6 50 19 121 25 131 10 15 -3 28 -49
48 -55 24 -120 17 -173 -18 -22 -14 -40 -23 -40 -19 0 25 96 127 111 117 5 -3
9 0 9 7 0 9 3 9 14 0 9 -8 16 -8 20 -2 4 5 2 12 -3 16 -5 3 -9 15 -8 26 1 16
7 19 25 16 15 -3 26 1 30 11 3 9 21 31 40 49 30 29 44 35 99 40 49 5 67 3 73
-8 12 -19 11 49 -1 82 -6 14 -25 33 -42 43 -23 12 -26 15 -9 12 32 -6 27 3
-11 20 -17 9 -45 23 -62 32 -42 22 -138 20 -196 -5 -70 -32 -158 -115 -201
-191 -64 -113 -80 -178 -79 -325 1 -104 -2 -129 -14 -133 -8 -4 -15 -12 -15
-20 0 -7 -30 -51 -66 -96 l-67 -82 -1 -71 c-1 -63 2 -74 29 -112 17 -24 38
-45 48 -49 16 -5 12 -12 -28 -50 -63 -61 -109 -162 -101 -224 5 -49 23 -109
37 -125 5 -5 9 -16 9 -26 0 -9 9 -28 21 -43 11 -14 18 -30 15 -35 -4 -5 2 -17
11 -27 12 -11 18 -32 17 -58 -1 -63 -17 -84 -69 -92 l-45 -6 0 -49 c0 -37 5
-54 21 -70 16 -16 18 -23 9 -29 -9 -5 -9 -9 -1 -14 6 -4 11 -2 11 3 0 6 4 11
8 11 4 0 13 -39 19 -87 7 -49 19 -108 27 -133 9 -25 13 -34 11 -20 -9 40 -18
276 -11 269 3 -3 12 -59 20 -125 9 -65 22 -141 30 -169 14 -49 14 -48 10 70
-5 113 -4 118 11 93 24 -42 28 -33 5 12 -26 50 -27 100 -2 100 13 0 14 -2 3
-9 -10 -7 -5 -11 18 -16 17 -4 29 -10 26 -15 -3 -5 3 -13 12 -19 10 -6 13 -11
6 -11 -6 0 -15 5 -18 10 -3 5 -12 10 -18 10 -7 0 3 -14 22 -30 26 -23 36 -27
42 -18 5 7 4 15 -1 16 -19 7 -10 22 12 22 12 0 19 -3 15 -6 -3 -4 -1 -12 6
-20 32 -36 38 -45 33 -53 -10 -15 -16 -82 -7 -77 4 3 13 31 20 62 16 71 31 53
19 -23 -14 -87 -4 -86 19 2 12 44 21 68 22 54 1 -14 -8 -59 -19 -100 -29 -110
-22 -107 15 6 32 98 33 99 35 55 l2 -45 13 53 c7 30 15 56 18 59 9 9 -4 -81
-19 -126 -8 -25 -12 -46 -10 -48 4 -5 46 92 46 107 0 6 5 8 10 5 6 -4 8 -11 5
-16 -4 -5 -3 -15 2 -21 5 -9 10 -1 15 22 5 25 6 18 4 -27 -1 -34 1 -60 6 -57
4 3 8 22 9 42 l0 37 24 -52 c26 -59 49 -68 67 -28 10 22 13 23 20 10 13 -21
28 -19 28 5 0 11 -4 20 -9 20 -5 0 -14 33 -20 73 -7 39 -18 101 -25 137 -8 36
-17 81 -20 100 l-6 35 20 -25 c19 -24 32 -69 35 -120 1 -14 3 -45 5 -70 l3
-45 6 55 6 55 28 -54 c28 -58 34 -86 17 -96 -5 -3 -10 -18 -9 -33 l1 -27 13
30 14 30 1 -50 c1 -44 2 -47 11 -25 6 14 8 43 4 65 -3 25 1 66 11 105 11 45
14 84 10 134 -4 39 -6 103 -6 141 1 44 -6 94 -19 134 -20 64 -20 65 0 92 13
19 19 44 19 83 0 56 3 61 40 57 12 -2 13 0 1 7 -14 10 -6 36 8 27 5 -2 6 7 3
20 -5 27 15 34 36 13 21 -21 13 1 -10 28 -40 47 -60 63 -73 58 -7 -3 -16 -1
-19 5 -4 6 8 8 31 6 27 -2 44 -12 60 -32 24 -29 24 -29 61 21 14 18 22 23 22
13 0 -8 -11 -29 -25 -45 l-25 -29 23 -64 22 -64 3 50 c4 56 11 68 32 55 13 -8
13 -10 -2 -10 -12 0 -16 -7 -14 -25 1 -14 6 -28 9 -32 11 -10 8 -73 -3 -73 -8
0 30 -132 51 -173 7 -12 5 -17 -6 -17 -17 0 -20 -16 -6 -24 5 -4 12 0 15 6 3
7 3 1 0 -14 -4 -20 -2 -28 7 -28 10 -1 8 -5 -4 -14 -11 -9 -14 -15 -6 -18 14
-5 -14 -78 -30 -78 -6 0 -11 -7 -11 -15 0 -9 -7 -27 -16 -41 -12 -17 -17 -49
-18 -102 -1 -51 -7 -88 -19 -111 -21 -41 -21 -41 -3 -41 8 0 14 -8 13 -19 -1
-13 -7 -17 -22 -14 -15 3 -13 0 8 -12 33 -19 35 -29 5 -22 l-23 6 24 -20 c22
-18 24 -18 37 -2 13 16 14 15 9 -12 l-6 -30 15 25 c8 14 15 37 16 53 0 15 4
27 9 27 14 0 32 -80 34 -155 4 -123 -36 -392 -71 -485 -5 -14 -10 -28 -11 -33
-2 -14 -59 -122 -85 -159 -22 -33 -23 -38 -8 -38 10 0 29 7 42 16 15 9 10 1
-12 -20 -43 -41 -85 -47 -159 -20 -24 8 -71 17 -104 19 -33 1 -84 8 -114 14
-29 6 -90 11 -133 11 -65 0 -99 7 -181 34 -135 46 -177 53 -177 32 0 -11 13
-18 40 -22 22 -4 40 -11 40 -17 0 -5 7 -4 15 3 10 8 15 9 15 2 0 -6 7 -9 15
-6 8 4 15 1 15 -5 0 -6 15 -11 33 -11 17 0 46 -7 62 -16 17 -9 59 -17 95 -19
36 -1 80 -3 98 -4 21 -1 32 -6 32 -16 0 -9 12 -18 30 -22 26 -5 29 -9 24 -27
-6 -18 -5 -19 9 -8 13 11 16 10 22 -7 3 -12 11 -21 16 -21 6 0 7 -4 4 -10 -4
-6 -15 -4 -30 6 -23 15 -25 15 -31 -1 -4 -10 0 -23 11 -33 16 -16 17 -16 10 6
-6 22 -5 22 14 10 17 -10 21 -23 21 -66 0 -49 -2 -53 -22 -52 -45 4 -52 1 -38
-15 18 -22 18 -106 0 -135 -10 -15 -11 -21 -3 -17 7 5 13 4 13 -2 0 -6 -9 -15
-20 -21 -14 -8 -20 -8 -20 0 0 6 -4 9 -8 6 -4 -3 -78 2 -163 9 -149 14 -229
18 -184 9 112 -24 255 -70 255 -83 0 -4 -10 -11 -22 -16 -16 -7 -25 -22 -29
-48 -6 -39 -6 -39 25 -34 17 2 39 7 49 12 16 7 16 4 -3 -44 -24 -61 -26 -83
-5 -55 13 17 14 17 15 2 0 -10 -8 -22 -19 -27 -11 -7 -20 -26 -24 -54 -3 -23
-9 -51 -13 -60 -4 -12 -1 -17 10 -17 9 0 16 -4 16 -10 0 -20 19 -10 23 12 4
23 4 23 6 1 0 -12 -6 -28 -14 -37 -9 -8 -17 -19 -18 -23 -1 -4 -8 -7 -17 -6
-9 2 -10 0 -2 -3 6 -3 12 -14 12 -24 0 -9 7 -23 15 -30 20 -17 8 -31 -53 -59
-37 -17 -52 -31 -65 -62 -23 -54 -22 -57 13 -22 17 17 42 36 58 42 15 7 39 32
54 56 15 25 34 45 43 45 21 0 19 -8 -11 -51 l-26 -38 31 -30 c17 -17 31 -33
31 -37 0 -3 -14 8 -32 25 -27 26 -34 29 -47 17 -9 -7 -35 -24 -58 -36 -24 -13
-43 -28 -43 -33 0 -6 9 -2 20 8 11 10 23 16 26 13 6 -7 -101 -96 -133 -111
-12 -5 -25 -17 -28 -25 -5 -14 -4 -14 12 0 24 21 106 57 116 51 4 -3 5 -25 1
-49 -5 -38 -4 -43 10 -38 11 4 16 1 16 -11 0 -11 -5 -15 -15 -11 -13 4 -14 2
-5 -14 6 -11 13 -20 16 -20 3 0 2 5 -2 11 -4 7 -1 10 7 7 9 -3 13 -18 13 -40
-2 -38 10 -44 40 -19 9 7 16 10 16 6 0 -4 7 -2 15 5 29 24 36 -2 7 -28 -16
-15 -32 -35 -36 -45 -3 -10 -9 -16 -14 -13 -4 2 -14 0 -22 -5 -11 -7 -8 -8 12
-5 22 4 29 -1 43 -30 9 -19 15 -42 13 -52 -3 -11 -9 -4 -17 21 -7 20 -16 37
-20 37 -11 0 -41 -56 -41 -78 0 -11 -8 -26 -17 -33 -15 -12 -16 -12 -10 6 7
19 6 19 -7 2 -15 -19 -31 -24 -20 -5 5 7 3 8 -5 4 -7 -5 -10 -10 -7 -13 3 -3
-1 -12 -9 -19 -16 -16 -29 -19 -20 -4 4 6 -1 7 -11 3 -15 -6 -15 -7 1 -15 11
-7 22 -5 33 5 9 8 30 17 46 20 l28 5 -4 -48 c-4 -38 -1 -49 13 -59 22 -13 42
-15 35 -3 -3 5 1 9 9 9 28 0 15 -15 -33 -37 -26 -12 -60 -32 -77 -44 -16 -11
-41 -26 -55 -33 l-25 -11 32 -1 c20 -1 43 8 63 26 28 23 32 24 29 7 -2 -10
-14 -23 -27 -29 -12 -5 -22 -13 -22 -17 0 -20 25 -3 81 52 33 33 61 60 63 60
1 0 2 -21 1 -47 0 -30 -4 -48 -12 -48 -6 0 -15 -3 -19 -7 -4 -5 -12 -8 -18 -8
-5 0 3 13 19 30 16 16 26 32 24 35 -3 2 -21 -12 -41 -33 -32 -34 -34 -38 -14
-37 11 0 27 4 33 8 7 5 13 4 13 0 0 -16 -55 -42 -70 -33 -22 14 -29 2 -20 -31
12 -41 24 -53 14 -15 -5 20 -3 27 4 22 6 -3 13 -2 17 4 10 15 34 12 31 -5 -1
-8 -5 -18 -9 -21 -15 -16 -7 -36 13 -31 29 7 25 0 -10 -18 -44 -23 -58 -19
-78 25 l-18 39 -11 -28 c-9 -24 -8 -28 6 -24 9 2 21 -5 28 -16 11 -18 9 -19
-26 -14 -21 3 -41 1 -44 -4 -3 -5 22 -9 59 -8 35 0 64 -3 64 -7 0 -9 -13 -11
-54 -8 -20 1 -26 -2 -21 -10 5 -9 1 -10 -14 -5 -15 4 -21 3 -19 -6 2 -8 -12
-14 -37 -16 -59 -7 -67 -7 -100 1 -22 4 -19 2 9 -9 43 -16 85 -13 150 11 61
23 53 9 -9 -16 -47 -19 -66 -22 -120 -16 l-64 6 12 -22 c22 -42 59 -77 99 -93
61 -24 109 -5 149 60 11 17 19 24 19 17 0 -7 5 -10 10 -7 6 3 10 0 10 -7 1 -8
6 -6 15 6 8 11 15 16 15 12 0 -4 -17 -28 -37 -52 -20 -25 -47 -66 -60 -92 -13
-26 -21 -39 -19 -30 3 9 -2 19 -10 22 -8 3 -13 2 -10 -3 7 -10 -47 -60 -93
-87 -19 -11 -29 -24 -26 -32 3 -8 5 -17 5 -21 0 -5 12 -6 28 -3 28 5 138 113
163 159 8 14 28 41 45 59 22 25 33 31 42 22 8 -8 11 -6 9 10 0 11 -4 19 -8 16
-4 -2 -10 0 -14 6 -3 5 -1 10 5 10 6 0 8 4 5 10 -3 5 2 10 11 10 15 0 16 10
11 92 -5 82 -4 91 9 74 9 -14 14 -46 14 -104 0 -46 5 -93 12 -105 7 -12 11
-33 11 -47 -1 -15 0 -18 3 -8 3 10 9 18 14 18 13 0 32 -77 27 -108 -4 -26 -4
-26 -12 -4 -4 12 -11 22 -16 22 -12 0 -22 -46 -16 -75 2 -14 0 -28 -4 -31 -10
-6 -13 19 -11 82 2 26 -3 46 -13 54 -10 9 -15 9 -15 1 0 -6 4 -11 8 -11 14 0
-8 -124 -25 -140 -13 -13 -14 -12 -9 15 3 17 1 48 -4 70 l-9 40 3 -48 c3 -36
1 -46 -7 -38 -6 6 -11 30 -12 53 0 33 -4 43 -19 46 -10 2 -23 -1 -30 -8 -8 -9
-8 -11 3 -8 7 2 15 -2 18 -9 3 -8 -3 -11 -16 -8 -24 4 -81 -55 -81 -84 0 -11
-14 -31 -30 -44 -35 -30 -36 -33 -10 -40 15 -4 24 3 35 27 9 18 17 42 20 55 5
29 24 53 36 45 5 -3 6 1 3 9 -3 8 -1 18 5 22 17 10 13 -51 -4 -65 -8 -7 -15
-17 -15 -23 0 -5 8 -3 18 6 31 28 47 14 18 -15 -7 -8 -12 -31 -11 -53 1 -22 3
-52 4 -67 l1 -28 533 0 532 0 0 55 0 55 -126 0 c-95 0 -129 3 -138 14 -25 30
12 36 269 38 l253 3 -27 33 c-15 17 -34 32 -42 32 -8 0 -14 5 -14 11 0 7 -10
9 -24 7 -19 -4 -24 -1 -23 14 1 10 5 18 9 18 4 0 8 5 8 10 0 7 -6 7 -19 0 -26
-13 -31 -13 -31 5 0 8 5 15 10 15 6 0 10 5 10 10 0 6 -11 8 -25 6 -19 -4 -25
0 -25 12 0 15 -2 15 -10 2 -8 -12 -10 -10 -10 8 0 13 4 20 10 17 6 -3 10 -1
10 4 0 6 -5 11 -11 11 -5 0 -7 5 -4 10 3 6 1 10 -4 10 -6 0 -11 9 -11 20 0 11
-7 20 -15 20 -8 0 -15 -4 -15 -10 0 -5 -7 -10 -15 -10 -11 0 -15 12 -15 50 0
35 4 50 13 49 36 -4 44 1 39 27 -3 16 1 29 8 34 11 7 8 16 -12 42 -15 19 -34
52 -43 74 -15 33 -18 36 -24 19 -7 -16 -9 -14 -14 14 -9 44 -9 53 2 47 12 -8
23 53 12 71 -6 11 -10 12 -15 4 -4 -6 -2 -11 4 -11 6 0 8 -4 5 -10 -3 -5 -13
-10 -21 -10 -11 0 -14 17 -14 78 0 42 -4 92 -9 110 -8 25 -7 32 2 29 7 -2 20
0 30 5 14 7 25 4 43 -13 13 -12 23 -27 22 -33 -1 -6 8 -37 20 -69 12 -32 22
-72 22 -90 0 -37 31 -156 54 -209 9 -21 16 -55 16 -77 0 -22 4 -42 9 -45 16
-11 33 -114 19 -122 -4 -3 -2 -11 5 -18 9 -10 14 -11 20 -2 4 7 10 8 15 1 4
-5 14 -11 22 -13 25 -6 128 -119 141 -157 l13 -35 310 -2 c303 -3 311 -3 311
-23 0 -19 -8 -20 -299 -25 -285 -5 -299 -6 -282 -22 10 -10 22 -18 27 -18 6 0
8 -4 4 -9 -3 -5 4 -12 14 -16 11 -3 23 -15 26 -26 6 -19 22 -19 821 -19 l814
0 0 1127 c0 619 -3 1123 -7 1120 -9 -10 -33 13 -33 31 0 13 3 12 20 -3 20 -18
20 -17 20 193 0 178 -2 212 -14 212 -8 0 -18 5 -22 11 -4 8 0 9 15 4 19 -6 21
-3 21 35 0 43 -4 44 -67 25 -6 -2 -24 8 -38 23 l-27 27 23 6 c13 3 39 9 56 13
18 5 38 15 45 23 10 13 7 14 -25 8 -34 -7 -37 -5 -54 29 -19 41 -19 40 -53 23
-15 -7 -44 -10 -70 -7 l-45 5 51 8 c28 4 74 18 102 32 28 14 57 22 65 19 13
-5 44 22 36 31 -2 2 -29 -5 -59 -15 -62 -22 -90 -25 -90 -10 0 6 -9 19 -20 30
-11 11 -15 20 -9 20 5 0 7 5 4 10 -4 6 -13 7 -24 1 -10 -6 -42 -13 -72 -17
-70 -9 -55 12 23 31 84 21 241 79 245 92 2 6 -21 1 -54 -12 -93 -38 -108 -40
-110 -14 -1 11 -9 30 -19 40 -15 17 -19 17 -45 4 -15 -8 -38 -15 -51 -14 -62
1 -100 -14 -91 -36 3 -8 0 -15 -7 -15 -6 0 -8 -6 -4 -12 5 -10 4 -10 -6 -1 -7
6 -10 19 -7 27 8 20 66 56 92 56 11 1 72 26 135 58 91 45 119 64 134 91 l19
33 -21 -6 c-18 -6 -22 -3 -22 14 0 22 -1 22 -26 5 -14 -9 -40 -15 -57 -14 -18
1 -40 -2 -50 -6 -11 -4 -33 -1 -55 8 -20 8 -52 21 -69 27 -44 16 -41 27 7 35
22 4 50 15 64 26 20 16 41 19 123 19 64 0 103 -4 111 -12 9 -9 12 15 12 109 0
67 -3 124 -7 126 -5 3 -44 8 -89 11 l-81 7 -12 -30 c-7 -16 -19 -32 -27 -35
-13 -5 -12 -2 1 16 16 23 19 86 9 150 l-6 37 -44 -45 c-24 -24 -56 -47 -71
-50 -23 -5 -32 -16 -51 -65 l-24 -60 26 -34 26 -33 -84 -46 c-46 -25 -89 -46
-94 -46 -14 0 -25 37 -16 51 5 9 0 10 -17 5 -92 -27 -171 -9 -211 47 -12 18
-28 36 -35 40 -7 4 -13 13 -13 19 0 6 12 2 27 -7 23 -16 25 -16 20 -1 -8 21 2
20 19 -1 10 -14 15 -15 24 -6 9 8 5 15 -16 27 -27 15 -27 16 -4 10 63 -17 95
-22 100 -15 3 4 14 13 25 19 17 10 13 11 -27 12 -49 0 -57 7 -36 28 9 9 7 17
-11 36 -22 23 -22 25 -7 78 8 29 21 75 28 102 7 27 20 51 28 54 25 9 50 40 50
62 0 11 4 20 10 20 5 0 7 7 4 15 -7 18 -5 19 37 1 19 -8 53 -13 76 -11 35 3
47 -2 83 -33 l42 -36 -3 46 c-3 39 -2 45 10 35 12 -10 13 -9 8 6 -4 10 -7 21
-7 23 0 3 -4 2 -10 -1 -6 -4 -10 7 -10 26 0 20 4 29 9 24 15 -17 32 -81 26
-97 -4 -9 -2 -19 4 -23 6 -3 11 -25 11 -48 0 -23 4 -37 8 -32 4 6 24 19 45 29
44 23 43 19 22 218 -18 170 -35 212 -114 271 -31 24 -77 55 -102 70 -39 22
-45 30 -42 54 1 15 7 109 13 208 6 99 26 448 45 775 19 327 39 699 44 825 6
127 13 271 16 320 18 289 32 606 28 643 -2 24 0 49 5 55 5 7 10 51 11 100 l2
87 -55 0 c-30 0 -57 -4 -60 -8z m-2551 -2489 c-11 -2 -30 -23 -43 -49 l-22
-44 29 0 c35 0 49 -15 23 -25 -16 -7 -15 -8 3 -15 11 -5 35 -9 53 -9 17 -1 33
-4 33 -8 6 -40 2 -58 -15 -61 -11 -3 -16 0 -12 7 5 8 -2 7 -21 -1 -38 -16 -36
-13 -42 -61 -5 -35 -10 -42 -28 -43 -17 -1 -26 8 -38 40 -25 70 -36 136 -29
187 5 40 12 52 38 69 17 11 45 19 61 18 20 0 23 -2 10 -5z m2132 -1241 c4 1
21 -6 36 -16 23 -16 32 -17 53 -7 34 15 34 15 34 -19 0 -18 -6 -33 -15 -36 -8
-4 -15 -12 -15 -20 0 -8 -7 -14 -15 -14 -8 0 -23 -5 -33 -11 -14 -9 -27 -8
-55 6 -20 9 -37 24 -38 31 0 8 -1 32 -1 54 0 22 1 42 1 45 1 3 10 1 21 -5 10
-6 23 -9 27 -8z m565 -1526 c38 -37 27 -46 -23 -18 -21 12 -39 18 -39 13 0 -5
6 -11 13 -14 21 -7 -62 -29 -162 -42 l-96 -13 -32 35 c-18 19 -33 36 -33 39 0
2 26 4 58 4 31 1 83 6 115 13 32 7 83 12 114 12 49 0 60 -4 85 -29z m-1505
-643 c103 -54 160 -92 188 -124 l20 -23 -35 22 c-19 12 -46 27 -60 34 -14 7
-28 17 -32 23 -10 13 -10 -16 0 -31 4 -6 34 -29 67 -50 42 -27 55 -39 43 -42
-10 -2 -18 -8 -18 -14 0 -5 6 -8 14 -5 11 4 12 -2 5 -31 -5 -20 -9 -41 -9 -45
0 -5 -4 -5 -10 -2 -5 3 -10 1 -10 -4 0 -6 6 -12 13 -13 6 0 17 -2 22 -2 15 -2
17 -21 3 -21 -7 -1 -12 -7 -10 -15 1 -10 -4 -8 -14 5 -15 20 -16 20 -12 -5 2
-15 11 -26 23 -28 25 -5 58 -39 50 -52 -3 -6 -16 -10 -28 -10 -22 -1 -22 -1 2
-21 13 -11 21 -22 18 -26 -4 -3 -13 0 -22 7 -10 8 -15 9 -15 1 0 -6 -7 -11
-16 -11 -9 0 -14 -6 -11 -12 2 -7 14 -12 25 -10 12 2 22 -2 22 -7 0 -6 -4 -11
-10 -11 -5 0 -7 -7 -3 -16 5 -13 7 -13 14 -2 6 9 9 7 9 -9 0 -13 -4 -23 -10
-23 -5 0 -10 -9 -10 -19 0 -11 -7 -26 -15 -35 -10 -10 -13 -24 -9 -40 4 -19
14 -26 46 -31 47 -8 57 -2 40 28 l-13 22 20 -22 c35 -41 2 -103 -56 -103 -30
0 -33 -3 -33 -29 0 -16 6 -46 14 -67 7 -22 12 -51 12 -66 -1 -23 1 -26 12 -15
24 25 26 83 3 115 -11 16 -18 32 -14 36 10 9 53 -60 53 -86 1 -13 6 -46 13
-73 10 -41 16 -50 31 -47 11 3 16 0 12 -7 -4 -6 -2 -11 3 -11 6 0 11 4 11 10
0 5 15 17 33 26 17 9 35 22 39 28 5 7 8 7 8 -3 0 -7 6 -11 14 -8 9 4 12 -2 10
-20 -2 -19 4 -27 25 -34 23 -8 27 -15 23 -35 -3 -19 -1 -23 11 -18 8 3 18 1
22 -5 3 -6 -1 -11 -9 -11 -9 0 -16 -7 -16 -16 0 -14 2 -15 17 -3 12 10 14 10
9 1 -4 -7 -1 -15 9 -18 14 -6 14 -8 -2 -19 -12 -9 -22 -10 -30 -3 -7 5 -20 8
-30 5 -14 -4 -13 -5 5 -6 12 0 25 -8 28 -16 6 -13 8 -14 18 -1 6 7 22 16 37
18 19 3 25 0 26 -14 1 -14 -3 -17 -18 -13 -15 5 -19 2 -19 -15 0 -17 4 -20 21
-15 15 5 20 3 17 -6 -7 -22 -37 -23 -60 -2 -18 15 -21 16 -15 2 5 -14 -1 -17
-33 -15 -21 0 -36 -2 -33 -6 2 -5 1 -8 -4 -8 -19 1 -32 18 -36 50 l-4 35 -1
-37 c-1 -23 -7 -38 -14 -38 -10 0 -10 -2 0 -8 9 -7 8 -14 -8 -32 -16 -18 -20
-20 -20 -7 0 10 6 17 12 17 7 0 2 7 -10 16 -13 9 -26 13 -29 10 -4 -3 -1 -6 5
-6 18 0 14 -28 -5 -38 -10 -6 -32 -13 -49 -16 -29 -7 -32 -4 -47 33 -17 43
-43 69 -29 29 6 -17 4 -28 -10 -40 -15 -16 -18 -16 -18 -2 0 9 -5 12 -12 8 -7
-5 -9 0 -6 14 4 14 0 22 -14 25 -15 4 -17 3 -8 -8 13 -15 3 -24 -23 -20 -14 3
-16 -1 -11 -17 5 -17 3 -20 -10 -15 -31 12 -5 -13 34 -33 53 -27 100 -86 100
-127 0 -17 -3 -34 -7 -36 -5 -3 -8 11 -8 30 0 25 -6 39 -20 47 -11 6 -44 27
-75 47 -85 55 -142 79 -169 72 -22 -6 -23 -4 -19 25 4 27 1 31 -21 34 -22 3
-26 9 -29 40 -2 22 1 38 7 38 6 0 11 -14 11 -31 0 -38 24 -35 28 4 4 35 22 35
23 0 l2 -28 4 28 c3 17 11 27 21 28 14 0 14 2 -2 8 -19 7 -18 8 3 23 l23 16
-24 24 c-50 50 -97 147 -98 202 -1 27 -26 60 -39 51 -6 -3 -11 -1 -11 4 0 6 5
11 10 11 6 0 10 7 10 15 0 18 -16 20 -24 3 -3 -9 -5 -8 -4 2 3 25 -12 70 -23
70 -6 0 -7 4 -4 10 6 10 -31 125 -47 147 -17 22 -73 -17 -63 -44 3 -9 -2 -10
-19 -3 -13 5 -27 6 -30 3 -3 -4 -6 -2 -6 4 0 8 -8 8 -26 0 -21 -10 -25 -17
-22 -45 4 -28 1 -33 -15 -28 -15 4 -16 2 -6 -10 9 -11 6 -30 -14 -87 -32 -90
-41 -145 -38 -224 4 -84 -3 -103 -40 -103 -25 0 -29 4 -29 29 0 30 21 56 35
43 4 -4 2 3 -4 16 -6 12 -18 22 -26 22 -20 0 -8 159 16 222 15 39 36 120 65
247 16 74 141 202 248 256 63 31 84 31 130 0 62 -42 70 -30 36 50 -21 50 -26
80 -11 70 17 -10 -1 69 -20 90 -14 15 -16 30 -12 63 3 23 9 42 14 42 4 0 47
-21 96 -47z m-1009 -272 c3 -10 0 -12 -12 -8 -9 4 -15 3 -12 -2 7 -11 66 -12
86 -1 12 6 17 5 17 -5 0 -8 -3 -13 -6 -13 -3 1 -19 -4 -35 -11 -21 -8 -43 -9
-73 -3 -34 8 -43 7 -43 -4 0 -8 5 -14 10 -14 6 0 10 -9 10 -21 0 -11 10 -29
23 -40 16 -14 17 -17 5 -13 -10 3 -18 1 -18 -5 0 -23 49 -23 87 -1 29 17 34
18 22 4 -8 -9 -29 -23 -47 -31 -28 -12 -37 -12 -50 -1 -15 11 -15 11 -5 -3 10
-12 9 -18 -7 -32 -11 -9 -22 -12 -25 -7 -4 6 -13 10 -22 10 -9 0 -25 8 -35 17
-19 17 -19 16 -13 -8 5 -21 -1 -34 -35 -70 -30 -32 -39 -49 -35 -64 17 -54 17
-61 0 -35 -16 24 -16 23 -10 -34 4 -47 3 -57 -7 -48 -8 6 -15 38 -16 72 -3 53
0 65 18 82 13 12 19 26 15 38 -8 24 11 35 20 12 6 -16 7 -16 21 2 19 26 18 46
-3 62 -26 19 -33 17 -33 -11 0 -16 -6 -25 -15 -25 -8 0 -15 -8 -16 -17 -4 -68
-4 -68 -31 -71 -16 -2 -28 -8 -28 -13 0 -6 -4 -7 -10 -4 -6 3 -1 15 11 28 41
43 54 68 39 77 -9 6 -7 10 9 15 16 5 20 12 16 23 -3 9 -3 13 1 10 3 -4 21 4
39 17 36 28 47 31 40 13 -6 -15 53 -58 78 -58 20 0 20 1 7 34 -6 17 -17 26
-31 26 -11 0 -32 9 -46 20 -31 24 -25 25 24 5 20 -8 38 -13 41 -11 8 8 -9 26
-24 26 -13 0 -13 2 0 21 9 14 13 34 10 53 -5 28 -4 29 9 14 17 -22 28 -23 21
-3 -5 11 -2 13 10 9 9 -3 16 -1 16 6 0 16 32 8 38 -9z m2107 5 c46 -4 76 -16
124 -49 24 -16 51 -30 60 -31 24 -2 91 -49 132 -92 41 -43 106 -166 138 -259
12 -33 37 -82 56 -110 25 -37 37 -68 45 -120 6 -38 23 -91 37 -118 25 -45 26
-52 15 -93 -10 -37 -10 -50 3 -74 21 -40 19 -60 -11 -127 -20 -44 -24 -68 -20
-100 3 -23 1 -45 -4 -48 -6 -3 -10 5 -10 19 0 23 -43 65 -67 66 -17 1 -63 50
-63 67 -1 30 -33 64 -50 53 -12 -8 -12 -10 -1 -10 8 0 11 -3 8 -6 -4 -4 -13
-1 -22 6 -11 10 -18 10 -29 1 -12 -10 -15 -6 -21 18 -4 17 -11 33 -15 36 -5 3
-7 20 -4 38 3 23 2 27 -4 13 -7 -16 -10 -17 -17 -6 -5 8 -5 15 1 17 30 11 36
21 25 42 -7 11 -18 21 -25 21 -19 0 -26 35 -15 73 31 108 -24 227 -131 282
-15 8 -51 17 -81 21 -53 7 -124 31 -104 35 6 2 32 3 60 3 36 1 50 5 53 16 4
23 -89 54 -193 66 -27 3 -72 9 -100 14 l-50 8 55 2 c30 2 83 2 116 1 36 -1 65
2 69 8 9 15 -4 53 -16 46 -5 -4 -9 4 -9 15 0 16 5 20 15 16 17 -6 21 19 5 29
-6 4 -7 11 -4 17 4 6 3 8 -3 5 -5 -3 -22 1 -38 9 -15 8 -30 12 -33 9 -3 -3
-10 0 -17 5 -6 5 -28 11 -47 12 -20 2 -34 6 -31 11 2 4 10 7 16 6 7 -1 24 -1
40 0 24 1 27 4 21 25 -5 19 -1 24 21 29 26 4 27 3 22 -29 -3 -19 -2 -34 4 -34
5 0 9 5 9 11 0 5 6 7 13 3 8 -6 8 -3 -2 9 -17 21 -7 49 14 41 8 -3 15 -3 15 0
0 13 -35 44 -57 50 -22 7 -30 26 -17 39 4 4 25 4 48 1 23 -3 55 -7 71 -8z
m-2093 -621 c-1 -16 -6 -70 -10 -120 -7 -87 -8 -90 -32 -90 -24 0 -25 2 -32
90 -3 50 -8 101 -11 115 -6 36 0 41 46 38 40 -3 42 -4 39 -33z m2175 -9 c4 -8
19 -16 33 -18 23 -3 25 -7 28 -66 l3 -63 -103 3 -103 3 -3 54 c-2 40 1 58 14
72 14 15 19 17 26 7 6 -10 11 -9 19 5 12 21 74 23 86 3z"/>
<path d="M1536 1201 c-9 -14 3 -71 19 -93 8 -13 15 -34 16 -48 0 -35 23 -95
35 -93 11 2 107 -217 98 -226 -3 -3 -9 1 -14 9 -31 54 -37 48 -15 -14 14 -37
40 -85 58 -106 29 -35 33 -37 39 -19 4 11 17 19 30 19 17 0 19 3 10 12 -8 8
-8 17 -1 31 9 16 6 24 -14 43 -14 13 -35 49 -47 81 -12 32 -26 63 -31 69 -5 6
-7 19 -3 28 3 9 1 16 -5 16 -6 0 -11 8 -11 18 0 9 -14 34 -30 54 -20 24 -26
38 -18 41 10 3 9 9 -3 23 -9 10 -20 34 -24 53 -7 34 -80 117 -89 102z"/>
<path d="M2476 7408 c-3 -29 -8 -168 -11 -308 -3 -140 -8 -340 -12 -444 -4
-129 -3 -187 4 -183 6 4 11 50 12 104 1 54 6 229 11 388 14 428 14 484 8 491
-4 3 -9 -18 -12 -48z"/>
<path d="M92 7205 c-1 -27 7 -221 18 -430 11 -209 20 -402 20 -428 0 -30 4
-46 10 -42 6 4 7 11 4 17 -4 6 -1 14 5 18 16 9 -5 541 -21 551 -6 4 -14 72
-19 155 -11 183 -15 224 -17 159z"/>
<path d="M2437 6105 c-5 -176 -14 -473 -21 -660 -7 -187 -9 -349 -5 -360 6
-15 8 -12 8 15 1 19 8 240 16 490 9 250 15 541 13 645 -3 183 -3 178 -11 -130z"/>
<path d="M2909 3950 l-24 -6 24 -13 24 -13 -21 -12 c-18 -9 -20 -14 -10 -24
10 -10 10 -15 1 -20 -8 -5 -1 -20 22 -47 27 -33 36 -38 46 -27 11 10 11 17 2
32 -11 16 -9 20 7 25 11 4 20 13 20 21 0 16 14 18 40 4 14 -8 18 -6 16 7 -2 9
-9 17 -17 19 -8 1 -27 8 -44 15 l-30 13 27 4 c14 2 32 10 39 18 11 13 6 15
-43 12 -31 -1 -66 -5 -79 -8z"/>
<path d="M220 1029 c-25 -10 -57 -18 -71 -18 -27 -1 -119 -29 -132 -41 -11
-10 10 -54 33 -67 15 -10 26 -7 63 17 25 16 76 42 113 58 38 17 70 36 73 43 2
6 -1 9 -7 5 -6 -3 -14 0 -19 7 -7 11 -16 10 -53 -4z"/>
<path d="M1446 98 c4 -6 8 -30 8 -52 l1 -41 45 -1 c25 -1 50 4 55 10 6 6 21
17 33 24 20 11 23 10 32 -10 l9 -23 0 23 c1 28 21 19 21 -9 0 -18 8 -19 102
-19 90 0 100 2 83 14 -11 8 -23 12 -27 10 -5 -3 -8 0 -8 5 0 6 -4 11 -10 11
-18 0 -61 44 -56 57 4 10 -26 13 -145 13 -113 0 -148 -3 -143 -12z"/>
</g>
</svg>
